<?xml version="1.0" encoding="UTF-8"?>
<svg id="Layer_2" xmlns="http://www.w3.org/2000/svg" version="1.1" viewBox="0 0 851.3 202.9">
  <!-- Generator: Adobe Illustrator 29.1.0, SVG Export Plug-In . SVG Version: 2.1.0 Build 142)  -->
  <defs>
    <style>
      .st0 {
        fill: #cff252;
      }

      .st1 {
        isolation: isolate;
      }

      .st2 {
        fill: #15441b;
      }
    </style>
  </defs>
  <g id="Layer_1-2">
    <g>
      <path class="st2" d="M296.6,29.4c-7.7-4-17.6-6.1-29.7-6.1h-35.2v102.4h40c4.9,0,9.6-.6,14.2-1.8,4.6-1.2,8.9-3.1,13-5.7,4-2.6,7.5-5.9,10.5-10s5.4-9,7.1-14.7,2.6-12.3,2.6-19.8-1.8-19.6-5.5-27.1-9.4-13.3-17.1-17.3h0ZM295.9,93.5c-2,5.2-5.1,9.2-9.2,11.9-4.1,2.8-9.2,4.2-15.4,4.2h-20V39.5h16.3c5.3,0,9.9.7,13.8,2.2s7.2,3.6,9.8,6.4c2.6,2.8,4.5,6.5,5.8,10.9,1.3,4.5,1.9,9.7,1.9,15.8s-1,13.4-3,18.6h0Z"/>
      <path class="st2" d="M385.2,104.5c-.9,1.7-2,3.1-3.5,4.4s-3.2,2.3-5.4,3.1c-2.1.8-4.7,1.2-7.8,1.2-6.9,0-12.4-2.2-16.4-6.7-3.6-4-5.5-9.8-5.9-17.4l60.4-.4c.5-7.6.2-14-1.4-19.8s-3.9-10.5-7.1-14.4-7.1-6.8-11.8-8.8c-4.7-2-13.3-3.1-19.2-3.1s-11.9,1.1-16.8,3.3-9.1,5.2-12.5,9.2-6,8.6-7.8,14-2.7,11.3-2.7,17.7.9,12.2,2.8,17.2c1.9,5.1,4.5,9.4,8.1,13,3.5,3.6,7.8,6.3,13,8.2,5.1,1.9,10.9,2.8,17.5,2.8s10.1-.6,14.1-1.7,7.5-2.8,10.5-5,5.4-4.8,7.2-7.8c1.9-3,4.1-10.3,5-14.1h-18c-.5,1.8-1.2,3.6-2.1,5.2h-.2ZM356.1,61.5c3.2-2.2,7.5-3.5,11.7-3.5s8.9.5,12.8,3.1c2.8,1.9,5.1,4.6,6.7,8.4,1,2.3,1.3,4.9,1.4,8l-41.9.3c.4-2.4,1-4.7,1.9-6.7,1.7-4.2,4.2-7.4,7.4-9.6h0Z"/>
      <path class="st2" d="M469.5,104.5c-.9,1.7-2,3.1-3.5,4.4s-3.2,2.3-5.4,3.1c-2.1.8-4.7,1.2-7.8,1.2-6.9,0-12.4-2.2-16.4-6.7-3.6-4-5.5-9.8-5.9-17.4l60.4-.4c.5-7.6.2-14-1.4-19.8s-3.9-10.5-7.1-14.4-7.1-6.8-11.8-8.8c-4.7-2-13.3-3.1-19.2-3.1s-11.9,1.1-16.8,3.3-9.1,5.2-12.5,9.2-6,8.6-7.8,14-2.7,11.3-2.7,17.7.9,12.2,2.8,17.2c1.9,5.1,4.5,9.4,8.1,13,3.5,3.6,7.8,6.3,13,8.2,5.1,1.9,10.9,2.8,17.5,2.8s10.1-.6,14.1-1.7,7.5-2.8,10.5-5,5.4-4.8,7.2-7.8c1.9-3,4.1-10.3,5-14.1h-18c-.5,1.8-1.2,3.6-2.1,5.2h-.2ZM440.4,61.5c3.2-2.2,7.5-3.5,11.7-3.5s8.9.5,12.8,3.1c2.8,1.9,5.1,4.6,6.7,8.4,1,2.3,1.3,4.9,1.4,8l-41.9.3c.4-2.4,1-4.7,1.9-6.7,1.7-4.2,4.2-7.4,7.4-9.6h0Z"/>
      <path class="st2" d="M772,104.5c-.9,1.7-2,3.1-3.5,4.4s-3.2,2.3-5.3,3.1c-2.1.8-4.7,1.2-7.8,1.2-6.9,0-12.4-2.2-16.4-6.7-3.6-4-5.5-9.8-5.9-17.4l60.4-.4c.5-7.6.2-14-1.4-19.8s-3.9-10.5-7.1-14.4-7.1-6.8-11.8-8.8-13.3-3.1-19.2-3.1-11.9,1.1-16.8,3.3c-4.9,2.2-9.1,5.2-12.5,9.2s-6,8.6-7.8,14-2.7,11.3-2.7,17.7.9,12.2,2.8,17.2c1.9,5.1,4.5,9.4,8.1,13s7.8,6.3,13,8.2c5.1,1.9,10.9,2.8,17.5,2.8s10.1-.6,14.1-1.7,7.5-2.8,10.5-5,5.3-4.8,7.2-7.8,4.1-10.3,5-14.1h-18c-.5,1.8-1.2,3.6-2.1,5.2h-.3ZM742.9,61.5c3.2-2.2,7.5-3.5,11.7-3.5s8.9.5,12.8,3.1c2.8,1.9,5.1,4.6,6.7,8.4,1,2.3,1.3,4.9,1.4,8l-41.9.3c.4-2.4,1-4.7,1.9-6.7,1.7-4.2,4.2-7.4,7.4-9.6h0Z"/>
      <path class="st2" d="M564,48c-5.1-3.6-11.2-5.3-18.5-5.3s-9.3.9-12.9,2.8-6.6,4.6-8.9,8.2c-2.3,3.6-4,8-5,13.2l-2.6-.2.2-22h-16.5v106.9h19.5v-22.5c0-2.6-.2-5.3-.5-8.2-.3-2.8-.7-5.7-1.2-8.7-.5-2.9-1-5.8-1.6-8.6h2.8c1.5,4.8,3.3,8.9,5.6,12.6,2.3,3.6,5.2,6.5,8.8,8.5,3.6,2.1,8.1,3.1,13.3,3.1s13.3-1.8,18.2-5.5,8.6-8.7,11-15.1,3.7-13.6,3.7-21.7-1.3-16.1-4-22.6c-2.6-6.5-6.5-11.5-11.6-15h.2ZM556.9,99.2c-1.5,4-3.6,7.1-6.4,9.3-2.8,2.2-6.2,3.3-10.2,3.3s-5.2-.5-7.5-1.6c-2.3-1-4.2-2.5-5.9-4.3s-3-3.8-4.2-6.1-2-4.4-2.6-6.7-.8-4.4-.8-6.4v-2.6c0-2.8.4-5.6,1.2-8.5s2.1-5.6,3.9-8.2c1.8-2.5,3.9-4.6,6.5-6.1s5.6-2.3,9-2.3,7.3,1.1,10.2,3.3c2.9,2.2,5.1,5.2,6.6,9.2,1.5,3.9,2.2,8.6,2.2,14s-.7,9.8-2.2,13.7h.2Z"/>
      <polygon class="st2" points="683.4 108.7 681.7 108.7 662.8 23.4 637.5 23.4 618.4 108.7 616.8 108.7 599.8 23.4 578.5 23.4 602.4 125.8 630.6 125.8 649.1 40.5 650.5 40.5 669 125.8 696.6 125.8 721 23.4 700.6 23.4 683.4 108.7"/>
      <rect class="st2" x="803.2" y="15.6" width="19.2" height="110.2"/>
      <rect class="st2" x="832" y="15.6" width="19.2" height="110.2"/>
    </g>
    <g>
      <g class="st1">
        <path class="st2" d="M259.8,170.2l4.8,1.2c-1,4-2.8,7-5.5,9.1-2.6,2.1-5.8,3.1-9.6,3.1s-7.1-.8-9.6-2.4c-2.5-1.6-4.3-3.9-5.6-7-1.3-3-1.9-6.3-1.9-9.8s.7-7.1,2.2-9.9,3.5-5,6.2-6.5,5.6-2.2,8.9-2.2,6.7.9,9.2,2.8,4.2,4.5,5.2,7.8l-4.8,1.1c-.8-2.7-2.1-4.6-3.7-5.8-1.6-1.2-3.6-1.8-6.1-1.8s-5.2.7-7,2-3.2,3.2-4,5.4c-.8,2.3-1.1,4.6-1.1,7s.5,5.8,1.4,8.1,2.3,4,4.2,5.2c1.9,1.1,4,1.7,6.2,1.7s5-.8,6.9-2.3c1.9-1.6,3.1-3.9,3.8-6.9h0Z"/>
      </g>
      <g class="st1">
        <path class="st2" d="M278.3,183l14-36.5h5.2l14.9,36.5h-5.5l-4.3-11.1h-15.3l-4,11.1h-5.1,0ZM288.8,168.1h12.4l-3.8-10.1c-1.2-3.1-2-5.6-2.6-7.6-.5,2.3-1.1,4.7-2,7l-4,10.7h0Z"/>
        <path class="st2" d="M326.5,183v-36.5h13.8c2.4,0,4.3.1,5.6.3,1.8.3,3.3.9,4.5,1.7s2.2,2,2.9,3.5c.7,1.5,1.1,3.2,1.1,5,0,3.1-1,5.7-3,7.9s-5.5,3.2-10.7,3.2h-9.4v14.8h-4.8ZM331.3,163.9h9.4c3.1,0,5.3-.6,6.6-1.7,1.3-1.2,2-2.8,2-4.9s-.4-2.8-1.2-3.9c-.8-1.1-1.8-1.8-3.1-2.2-.8-.2-2.3-.3-4.5-.3h-9.3v13h.1Z"/>
        <path class="st2" d="M371.5,183v-36.5h4.8v36.5h-4.8Z"/>
      </g>
      <g class="st1">
        <path class="st2" d="M404.9,183v-32.2h-12v-4.3h28.9v4.3h-12.1v32.2h-4.8Z"/>
      </g>
      <g class="st1">
        <path class="st2" d="M430.6,183l14-36.5h5.2l14.9,36.5h-5.5l-4.3-11.1h-15.3l-4,11.1h-5.1,0ZM441.2,168.1h12.4l-3.8-10.1c-1.2-3.1-2-5.6-2.6-7.6-.5,2.3-1.1,4.7-2,7l-4,10.7h0Z"/>
        <path class="st2" d="M478.7,183v-36.5h4.8v32.2h18v4.3h-22.8Z"/>
      </g>
    </g>
    <path class="st0" d="M120.6,0H32.2c-3.2,0-6.3,1.3-8.6,3.5L3.5,23.6c-2.3,2.3-3.5,5.4-3.5,8.6v34.6c0,5.8,4.1,10.8,9.9,12l62.8,12.1-9.2-5c-14.7-9.5-22-26.4-23.6-43.5,0-1.5-.6-6-.4-7.2,0-.6,0-1,.6-1.4h25.8c-.7,25.8,11.3,53,38,60.1-26.7,7.3-38.6,34.2-38,60.1h-26.3c0-21.1,7.2-42.4,26.2-53.4,2.2-1.3,5-2.1,6.9-3.7l-62.9,12.4c-5.7,1.1-9.8,6.1-9.8,11.9v34.2c0,3.2,1.3,6.3,3.5,8.6l20.1,20.1c2.3,2.3,5.4,3.6,8.6,3.6h88.4c37,0,67-30,67-67v-53.6C187.6,30,157.6,0,120.5,0h0ZM119,153.9h-26.4c-.2-14.9,3.3-30.3,12.8-42.1,8.5-10.6,21.6-16.8,35.2-18-9.2-.8-18.2-3.7-25.7-9.1-16.3-11.5-22.6-31.7-22.2-51.1h26.4c-1.3,25.6,11.5,53.4,37.9,60.1-26.6,6.9-39.1,34.3-37.9,60.1h-.1Z"/>
  </g>
</svg>